<svg id="visual" viewBox="0 0 900 600" width="900" height="600" xmlns="http://www.w3.org/2000/svg" xmlns:xlink="http://www.w3.org/1999/xlink" version="1.1"><g stroke-width="1" stroke-linejoin="bevel"><path d="M502 289L497 239L389 286Z" fill="#1293ac" stroke="#1293ac"></path><path d="M497 239L365 173L389 286Z" fill="#1abac8" stroke="#1abac8"></path><path d="M522 406L580 322L502 289Z" fill="#36d9d9" stroke="#36d9d9"></path><path d="M502 289L612 222L497 239Z" fill="#2ed1d5" stroke="#2ed1d5"></path><path d="M389 286L424 418L502 289Z" fill="#10a2b8" stroke="#10a2b8"></path><path d="M365 173L319 182L389 286Z" fill="#2ed1d5" stroke="#2ed1d5"></path><path d="M389 286L282 401L424 418Z" fill="#1abac8" stroke="#1abac8"></path><path d="M424 418L522 406L502 289Z" fill="#148ba6" stroke="#148ba6"></path><path d="M319 182L276 290L389 286Z" fill="#1abac8" stroke="#1abac8"></path><path d="M580 322L612 222L502 289Z" fill="#1abac8" stroke="#1abac8"></path><path d="M497 239L434 62L365 173Z" fill="#109ab2" stroke="#109ab2"></path><path d="M434 62L316 125L365 173Z" fill="#109ab2" stroke="#109ab2"></path><path d="M365 173L316 125L319 182Z" fill="#10a2b8" stroke="#10a2b8"></path><path d="M319 182L224 200L276 290Z" fill="#36d9d9" stroke="#36d9d9"></path><path d="M612 222L534 94L497 239Z" fill="#1293ac" stroke="#1293ac"></path><path d="M522 406L604 404L580 322Z" fill="#10a2b8" stroke="#10a2b8"></path><path d="M580 322L714 270L612 222Z" fill="#10a2b8" stroke="#10a2b8"></path><path d="M603 490L604 404L522 406Z" fill="#12aabe" stroke="#12aabe"></path><path d="M534 94L434 62L497 239Z" fill="#26c9d1" stroke="#26c9d1"></path><path d="M276 290L282 401L389 286Z" fill="#148ba6" stroke="#148ba6"></path><path d="M282 401L410 484L424 418Z" fill="#1293ac" stroke="#1293ac"></path><path d="M424 418L511 527L522 406Z" fill="#2ed1d5" stroke="#2ed1d5"></path><path d="M612 222L622 135L534 94Z" fill="#148ba6" stroke="#148ba6"></path><path d="M667 113L622 135L738 183Z" fill="#148ba6" stroke="#148ba6"></path><path d="M316 125L224 200L319 182Z" fill="#2ed1d5" stroke="#2ed1d5"></path><path d="M276 290L206 285L282 401Z" fill="#148ba6" stroke="#148ba6"></path><path d="M224 200L206 285L276 290Z" fill="#1abac8" stroke="#1abac8"></path><path d="M410 484L511 527L424 418Z" fill="#148ba6" stroke="#148ba6"></path><path d="M711 371L580 322L604 404Z" fill="#109ab2" stroke="#109ab2"></path><path d="M711 371L714 270L580 322Z" fill="#109ab2" stroke="#109ab2"></path><path d="M738 183L622 135L612 222Z" fill="#36d9d9" stroke="#36d9d9"></path><path d="M622 135L567 0L534 94Z" fill="#109ab2" stroke="#109ab2"></path><path d="M495 0L418 0L434 62Z" fill="#36d9d9" stroke="#36d9d9"></path><path d="M495 0L434 62L534 94Z" fill="#1293ac" stroke="#1293ac"></path><path d="M434 62L291 0L316 125Z" fill="#109ab2" stroke="#109ab2"></path><path d="M316 125L192 99L224 200Z" fill="#10a2b8" stroke="#10a2b8"></path><path d="M511 527L603 490L522 406Z" fill="#36d9d9" stroke="#36d9d9"></path><path d="M567 0L495 0L534 94Z" fill="#12aabe" stroke="#12aabe"></path><path d="M282 401L302 507L410 484Z" fill="#148ba6" stroke="#148ba6"></path><path d="M410 484L497 600L511 527Z" fill="#26c9d1" stroke="#26c9d1"></path><path d="M166 489L302 507L282 401Z" fill="#20c2cd" stroke="#20c2cd"></path><path d="M666 491L711 371L604 404Z" fill="#26c9d1" stroke="#26c9d1"></path><path d="M667 113L567 0L622 135Z" fill="#2ed1d5" stroke="#2ed1d5"></path><path d="M139 264L170 394L206 285Z" fill="#15b2c3" stroke="#15b2c3"></path><path d="M206 285L170 394L282 401Z" fill="#2ed1d5" stroke="#2ed1d5"></path><path d="M714 270L738 183L612 222Z" fill="#1293ac" stroke="#1293ac"></path><path d="M667 113L707 0L567 0Z" fill="#26c9d1" stroke="#26c9d1"></path><path d="M817 280L738 183L714 270Z" fill="#20c2cd" stroke="#20c2cd"></path><path d="M291 0L192 99L316 125Z" fill="#26c9d1" stroke="#26c9d1"></path><path d="M224 200L139 264L206 285Z" fill="#12aabe" stroke="#12aabe"></path><path d="M78 224L139 264L224 200Z" fill="#20c2cd" stroke="#20c2cd"></path><path d="M418 0L291 0L434 62Z" fill="#12aabe" stroke="#12aabe"></path><path d="M603 490L666 491L604 404Z" fill="#1abac8" stroke="#1abac8"></path><path d="M635 600L666 491L603 490Z" fill="#36d9d9" stroke="#36d9d9"></path><path d="M375 600L497 600L410 484Z" fill="#15b2c3" stroke="#15b2c3"></path><path d="M511 527L635 600L603 490Z" fill="#36d9d9" stroke="#36d9d9"></path><path d="M294 600L375 600L302 507Z" fill="#15b2c3" stroke="#15b2c3"></path><path d="M302 507L375 600L410 484Z" fill="#2ed1d5" stroke="#2ed1d5"></path><path d="M291 0L232 0L192 99Z" fill="#1293ac" stroke="#1293ac"></path><path d="M139 264L125 398L170 394Z" fill="#36d9d9" stroke="#36d9d9"></path><path d="M170 394L166 489L282 401Z" fill="#1abac8" stroke="#1abac8"></path><path d="M125 398L166 489L170 394Z" fill="#148ba6" stroke="#148ba6"></path><path d="M165 600L294 600L302 507Z" fill="#20c2cd" stroke="#20c2cd"></path><path d="M192 99L78 224L224 200Z" fill="#36d9d9" stroke="#36d9d9"></path><path d="M139 264L0 336L125 398Z" fill="#109ab2" stroke="#109ab2"></path><path d="M63 79L78 224L192 99Z" fill="#109ab2" stroke="#109ab2"></path><path d="M789 424L817 280L711 371Z" fill="#1293ac" stroke="#1293ac"></path><path d="M711 371L817 280L714 270Z" fill="#36d9d9" stroke="#36d9d9"></path><path d="M830 83L667 113L738 183Z" fill="#1293ac" stroke="#1293ac"></path><path d="M830 83L707 0L667 113Z" fill="#15b2c3" stroke="#15b2c3"></path><path d="M793 527L789 424L666 491Z" fill="#12aabe" stroke="#12aabe"></path><path d="M666 491L789 424L711 371Z" fill="#20c2cd" stroke="#20c2cd"></path><path d="M497 600L635 600L511 527Z" fill="#12aabe" stroke="#12aabe"></path><path d="M817 280L819 163L738 183Z" fill="#10a2b8" stroke="#10a2b8"></path><path d="M125 398L137 514L166 489Z" fill="#1abac8" stroke="#1abac8"></path><path d="M166 489L165 600L302 507Z" fill="#148ba6" stroke="#148ba6"></path><path d="M0 423L137 514L125 398Z" fill="#20c2cd" stroke="#20c2cd"></path><path d="M232 0L130 0L192 99Z" fill="#15b2c3" stroke="#15b2c3"></path><path d="M635 600L709 600L666 491Z" fill="#26c9d1" stroke="#26c9d1"></path><path d="M819 163L830 83L738 183Z" fill="#1293ac" stroke="#1293ac"></path><path d="M900 73L830 83L819 163Z" fill="#12aabe" stroke="#12aabe"></path><path d="M130 0L63 79L192 99Z" fill="#36d9d9" stroke="#36d9d9"></path><path d="M709 600L793 527L666 491Z" fill="#15b2c3" stroke="#15b2c3"></path><path d="M900 387L900 318L817 280Z" fill="#26c9d1" stroke="#26c9d1"></path><path d="M137 514L165 600L166 489Z" fill="#26c9d1" stroke="#26c9d1"></path><path d="M830 83L804 0L707 0Z" fill="#12aabe" stroke="#12aabe"></path><path d="M78 224L0 336L139 264Z" fill="#1293ac" stroke="#1293ac"></path><path d="M137 514L81 600L165 600Z" fill="#1abac8" stroke="#1abac8"></path><path d="M0 178L0 336L78 224Z" fill="#1abac8" stroke="#1abac8"></path><path d="M0 133L0 178L78 224Z" fill="#109ab2" stroke="#109ab2"></path><path d="M900 387L817 280L789 424Z" fill="#10a2b8" stroke="#10a2b8"></path><path d="M817 280L900 217L819 163Z" fill="#12aabe" stroke="#12aabe"></path><path d="M900 318L900 217L817 280Z" fill="#148ba6" stroke="#148ba6"></path><path d="M830 83L900 0L804 0Z" fill="#15b2c3" stroke="#15b2c3"></path><path d="M0 0L0 133L63 79Z" fill="#1293ac" stroke="#1293ac"></path><path d="M63 79L0 133L78 224Z" fill="#109ab2" stroke="#109ab2"></path><path d="M900 498L900 387L789 424Z" fill="#109ab2" stroke="#109ab2"></path><path d="M0 336L0 423L125 398Z" fill="#15b2c3" stroke="#15b2c3"></path><path d="M0 520L81 600L137 514Z" fill="#15b2c3" stroke="#15b2c3"></path><path d="M900 217L900 73L819 163Z" fill="#26c9d1" stroke="#26c9d1"></path><path d="M837 600L900 498L793 527Z" fill="#1abac8" stroke="#1abac8"></path><path d="M793 527L900 498L789 424Z" fill="#109ab2" stroke="#109ab2"></path><path d="M0 423L0 520L137 514Z" fill="#12aabe" stroke="#12aabe"></path><path d="M709 600L837 600L793 527Z" fill="#2ed1d5" stroke="#2ed1d5"></path><path d="M130 0L0 0L63 79Z" fill="#26c9d1" stroke="#26c9d1"></path><path d="M900 73L900 0L830 83Z" fill="#2ed1d5" stroke="#2ed1d5"></path><path d="M0 520L0 600L81 600Z" fill="#36d9d9" stroke="#36d9d9"></path><path d="M837 600L900 600L900 498Z" fill="#12aabe" stroke="#12aabe"></path></g></svg>